<?xml version="1.0" standalone="no"?>
<!DOCTYPE svg PUBLIC "-//W3C//DTD SVG 20010904//EN"
 "http://www.w3.org/TR/2001/REC-SVG-20010904/DTD/svg10.dtd">
<svg version="1.0" xmlns="http://www.w3.org/2000/svg"
 width="700.000000pt" height="700.000000pt" viewBox="0 0 700.000000 700.000000"
 preserveAspectRatio="xMidYMid meet">
<metadata>
Created by potrace 1.11, written by Peter Selinger 2001-2013
</metadata>
<g transform="translate(0.000000,700.000000) scale(0.100000,-0.100000)"
fill="#000000" stroke="none">
<path d="M4294 6981 c-46 -21 -96 -77 -111 -124 -11 -37 -10 -700 2 -762 57
-311 243 -571 506 -709 82 -42 234 -96 274 -96 14 0 25 -2 25 -5 0 -2 -101
-105 -225 -229 l-225 -225 -42 24 c-44 24 -138 62 -180 71 -85 20 -123 25
-202 28 l-89 2 -2 75 c-9 321 -162 583 -436 741 -83 48 -208 94 -288 106 -57
8 -245 7 -286 -1 -16 -4 -42 -9 -58 -12 -105 -20 -276 -110 -367 -192 -66 -60
-143 -154 -184 -225 -15 -27 -29 -48 -32 -48 -2 0 -21 11 -42 24 -195 123
-485 156 -709 81 -370 -125 -608 -461 -597 -845 3 -103 12 -157 40 -244 21
-64 51 -130 81 -178 25 -41 29 -58 12 -58 -6 0 -43 -21 -82 -46 -176 -114
-302 -284 -363 -491 -62 -210 -25 -491 87 -668 16 -25 29 -49 29 -53 0 -4 -27
-22 -60 -40 -186 -102 -341 -306 -402 -528 -31 -117 -31 -317 1 -434 22 -78
87 -225 114 -259 9 -10 9 -15 1 -18 -6 -2 -46 -27 -89 -55 -197 -129 -331
-326 -379 -558 -22 -104 -15 -310 13 -383 6 -15 9 -27 6 -27 -8 0 45 -123 79
-183 114 -205 299 -345 546 -414 76 -22 287 -26 370 -8 185 40 358 137 474
266 35 38 130 176 138 200 2 6 29 -4 63 -25 244 -145 563 -153 825 -21 151 76
263 186 373 367 l17 27 74 -40 c300 -161 644 -141 921 56 82 58 184 169 235
254 23 39 44 71 46 71 2 0 26 -14 54 -30 73 -43 155 -76 235 -95 17 -4 39 -9
50 -12 88 -20 324 -4 410 29 149 56 260 124 349 215 216 219 302 531 227 825
-21 81 -67 191 -100 237 -12 16 -21 31 -21 34 0 3 31 23 68 45 85 51 200 156
258 237 55 79 116 208 140 300 25 96 25 313 1 405 -44 167 -111 284 -227 400
-96 96 -111 108 -195 155 -120 68 -276 106 -438 109 l-48 1 -4 100 c-4 121
-32 232 -83 340 l-38 79 362 363 362 362 648 3 c722 3 678 -1 742 72 70 80 66
200 -8 275 -65 65 -46 63 -680 65 l-575 1 -1 185 c-2 264 -10 339 -56 475 -58
169 -173 331 -323 452 -107 86 -308 172 -450 191 -38 6 -171 10 -295 11 -197
0 -230 -2 -266 -18z"/>
</g>
</svg>
